<svg width="8" height="12" viewBox="0 0 8 12" fill="none" xmlns="http://www.w3.org/2000/svg">
<path d="M1.38721 0.563477C1.48803 0.563477 1.56501 0.593888 1.64307 0.671875L6.5874 5.61621C6.64129 5.67013 6.66647 5.71211 6.67822 5.74023V5.74121C6.693 5.77677 6.70166 5.81654 6.70166 5.86523C6.70166 5.91393 6.69301 5.9537 6.67822 5.98926V5.99023C6.66647 6.01836 6.64129 6.06034 6.5874 6.11426L1.61865 11.083C1.54088 11.1608 1.47374 11.1826 1.39307 11.1797C1.29904 11.1762 1.21818 11.1443 1.13232 11.0586C1.0542 10.9805 1.02295 10.9036 1.02295 10.8027C1.02295 10.7018 1.0542 10.625 1.13232 10.5469L5.81396 5.86523L1.10693 1.1582C1.02927 1.0805 1.00733 1.0142 1.01025 0.933594C1.0137 0.839327 1.04627 0.75793 1.13232 0.671875C1.21025 0.594066 1.28662 0.563553 1.38721 0.563477Z" fill="white" stroke="white"/>
</svg>
