<svg width="24" height="25" viewBox="0 0 24 25" fill="none" xmlns="http://www.w3.org/2000/svg">
<path d="M12 0.442383C5.388 0.442383 0 5.83038 0 12.4424C0 19.0544 5.388 24.4424 12 24.4424C18.612 24.4424 24 19.0544 24 12.4424C24 5.83038 18.612 0.442383 12 0.442383ZM8.028 13.3304L4.8 16.5584C4.356 17.0024 3.6 16.6904 3.6 16.0664V8.83038C3.6 8.20638 4.356 7.89438 4.8 8.33838L8.028 11.5664C8.52 12.0584 8.52 12.8504 8.028 13.3424V13.3304ZM12 13.6424C11.34 13.6424 10.8 13.1024 10.8 12.4424C10.8 11.7824 11.34 11.2424 12 11.2424C12.66 11.2424 13.2 11.7824 13.2 12.4424C13.2 13.1024 12.66 13.6424 12 13.6424ZM20.4 16.0664C20.4 16.6904 19.644 17.0024 19.2 16.5584L15.972 13.3304C15.48 12.8384 15.48 12.0464 15.972 11.5544L19.2 8.32638C19.644 7.88238 20.4 8.19438 20.4 8.81838V16.0544V16.0664Z" fill="#2899D5"/>
</svg>
