<svg width="132" height="50" viewBox="0 0 132 50" fill="none" xmlns="http://www.w3.org/2000/svg">
<g clip-path="url(#clip0_8205_37107)">
<path d="M132 23.8435C132 26.0958 131.133 28.1981 129.56 29.7668C128.004 31.3419 125.917 32.2141 123.687 32.2141H104.208C106.53 30.9457 108.55 29.1853 110.123 27.0703H123.687C124.548 27.0703 125.348 26.738 125.939 26.1342C126.549 25.5272 126.879 24.722 126.879 23.8594C126.873 22.9904 126.543 22.1821 125.949 21.5942C125.142 20.7796 122.728 19.5495 120.787 18.5591L120.685 18.5112C118.01 17.1534 115.475 15.869 114.059 14.4441C113.9 14.2843 113.747 14.1214 113.604 13.9521C112.321 12.4409 111.622 10.5399 111.622 8.53674C111.622 8.2524 111.635 7.96805 111.663 7.6901C111.854 5.78275 112.686 4.00639 114.059 2.63259C115.631 1.05112 117.715 0.182109 119.932 0.182109H131.539V5.32588H119.932C119.087 5.32588 118.283 5.66454 117.67 6.27157C117.07 6.88179 116.74 7.6901 116.74 8.53674C116.74 9.38339 117.07 10.2013 117.677 10.8083C118.522 11.6581 120.999 12.9169 122.991 13.9297C125.65 15.278 128.163 16.5527 129.56 17.9553C131.117 19.524 131.984 21.6166 131.997 23.8466L132 23.8435ZM79.8722 12.8339C80.5234 9.69009 82.099 6.80511 84.4465 4.53035C87.4579 1.61022 91.4127 0 95.5868 0C104.44 0 111.644 7.24601 111.644 16.1502C111.644 25.0543 104.443 32.3003 95.5868 32.3003C90.6027 32.3003 85.8759 29.9361 82.8423 25.9521H82.8264L82.5056 25.524L71.0794 9.24601V34.3195L53.4842 9.24601V32.1725H48.3668V0.124601H53.3413L65.9651 18.1118V0.124601H70.9364L79.8722 12.8339ZM106.527 16.1502C106.527 10.0831 101.619 5.14377 95.5836 5.14377C89.5481 5.14377 84.6402 10.0799 84.6402 16.1502C84.6402 18.3514 85.2883 20.476 86.5144 22.2939L86.5335 22.3259C86.6065 22.4409 86.6923 22.5655 86.8003 22.7061L86.8162 22.7252C88.9096 25.5431 92.1052 27.1597 95.5772 27.1597C101.61 27.1597 106.521 22.2236 106.521 16.1534L106.527 16.1502ZM29.4247 0.134185V5.28115H35.365V32.1789H40.4825V5.27796H46.4227V0.134185H29.4279H29.4247ZM22.503 0.127796L0 32.1757H6.27059L22.3568 9.2492V32.1757H27.4743V0.127796H22.503ZM88.0011 50H98.7983V46.9776H91.3079V34.8882H88.0011V50ZM102.308 50H113.75V47.0415H105.593V43.869H112.677V40.9105H105.593V37.8434H113.642V34.885H102.308V49.9968V50ZM118.156 50H124.017C128.741 50 132.003 46.6965 132.003 42.4441V42.3994C132.003 38.147 128.741 34.885 124.017 34.885H118.156V49.9968V50ZM121.463 46.9968V37.8882H124.017C126.721 37.8882 128.547 39.7668 128.547 42.4441V42.4856C128.547 45.1629 126.721 46.9968 124.017 46.9968H121.463Z" fill="white"/>
</g>
<defs>
<clipPath id="clip0_8205_37107">
<rect width="132" height="50" fill="white"/>
</clipPath>
</defs>
</svg>
