<svg width="132" height="50" viewBox="0 0 132 50" fill="none" xmlns="http://www.w3.org/2000/svg">
<path d="M132 24.1768C132 26.4292 131.133 28.5314 129.56 30.1001C128.004 31.6752 125.917 32.5474 123.687 32.5474H104.208C106.53 31.279 108.55 29.5186 110.123 27.4036H123.687C124.548 27.4036 125.348 27.0713 125.939 26.4675C126.549 25.8605 126.879 25.0554 126.879 24.1927C126.873 23.3237 126.543 22.5154 125.949 21.9276C125.142 21.1129 122.728 19.8828 120.787 18.8924L120.685 18.8445C118.01 17.4867 115.475 16.2023 114.059 14.7774C113.9 14.6177 113.747 14.4547 113.604 14.2854C112.321 12.7742 111.622 10.8732 111.622 8.87005C111.622 8.58571 111.635 8.30136 111.663 8.02341C111.854 6.11606 112.686 4.3397 114.059 2.9659C115.631 1.38443 117.715 0.515422 119.932 0.515422H131.539V5.65919H119.932C119.087 5.65919 118.283 5.99785 117.67 6.60488C117.07 7.2151 116.74 8.02341 116.74 8.87005C116.74 9.7167 117.07 10.5346 117.677 11.1416C118.522 11.9915 120.999 13.2502 122.991 14.263C125.65 15.6113 128.163 16.886 129.56 18.2886C131.117 19.8573 131.984 21.9499 131.997 24.18L132 24.1768ZM79.8722 13.1672C80.5234 10.0234 82.099 7.13842 84.4465 4.86366C87.4579 1.94354 91.4127 0.333313 95.5868 0.333313C104.44 0.333313 111.644 7.57932 111.644 16.4835C111.644 25.3876 104.443 32.6336 95.5868 32.6336C90.6027 32.6336 85.8759 30.2694 82.8423 26.2854H82.8264L82.5056 25.8573L71.0794 9.57932V34.6528L53.4842 9.57932V32.5058H48.3668V0.457914H53.3413L65.9651 18.4451V0.457914H70.9364L79.8722 13.1672ZM106.527 16.4835C106.527 10.4164 101.619 5.47708 95.5836 5.47708C89.5481 5.47708 84.6402 10.4132 84.6402 16.4835C84.6402 18.6848 85.2883 20.8094 86.5144 22.6272L86.5335 22.6592C86.6065 22.7742 86.6923 22.8988 86.8003 23.0394L86.8162 23.0586C88.9096 25.8764 92.1052 27.4931 95.5772 27.4931C101.61 27.4931 106.521 22.557 106.521 16.4867L106.527 16.4835ZM29.4247 0.467498V5.61446H35.365V32.5122H40.4825V5.61127H46.4227V0.467498H29.4279H29.4247ZM22.503 0.461109L0 32.509H6.27059L22.3568 9.58251V32.509H27.4743V0.461109H22.503ZM88.0011 50.3333H98.7983V47.3109H91.3079V35.2215H88.0011V50.3333ZM102.308 50.3333H113.75V47.3748H105.593V44.2023H112.677V41.2439H105.593V38.1768H113.642V35.2183H102.308V50.3301V50.3333ZM118.156 50.3333H124.017C128.741 50.3333 132.003 47.0298 132.003 42.7774V42.7327C132.003 38.4803 128.741 35.2183 124.017 35.2183H118.156V50.3301V50.3333ZM121.463 47.3301V38.2215H124.017C126.721 38.2215 128.547 40.1001 128.547 42.7774V42.8189C128.547 45.4963 126.721 47.3301 124.017 47.3301H121.463Z" fill="black"/>
</svg>
