<svg width="133" height="37" viewBox="0 0 133 37" fill="none" xmlns="http://www.w3.org/2000/svg">
<path fill-rule="evenodd" clip-rule="evenodd" d="M31.5515 9.12614L31.8026 9.57458C32.1188 10.1195 32.2859 10.7382 32.2869 11.3682V25.2697C32.2818 25.8992 32.115 26.5169 31.8026 27.0635L31.5336 27.5119C31.2263 28.0609 30.7731 28.514 30.2242 28.8213L18.1882 35.781C17.6432 36.0971 17.0245 36.2641 16.3945 36.2653H15.8922C15.2613 36.2712 14.6408 36.1037 14.0985 35.781L2.04461 28.8393C1.50736 28.5168 1.05768 28.0671 0.73519 27.5298L0.484066 27.0814C0.167913 26.5364 0.000875854 25.9178 -0.000244141 25.2877V11.3862C0.000875854 10.7562 0.167913 10.1375 0.484066 9.59252L0.73519 9.14408C1.04955 8.60054 1.50106 8.14895 2.04461 7.83465L14.0805 0.874935C14.6256 0.558799 15.2442 0.391762 15.8743 0.390625H16.3945C17.0245 0.391762 17.6432 0.558799 18.1882 0.874935L30.2242 7.81671C30.7708 8.13311 31.2277 8.58382 31.5515 9.12614ZM16.3945 3.97802H15.8743L5.38098 10.0409L16.1433 16.2471L26.9058 10.0409L16.3945 3.97802ZM28.4304 25.7183L17.9371 31.7811V19.3684L28.6994 13.1442V25.2698L28.4304 25.7183ZM79.063 26.9381H75.3435V7.3075H79.063V26.9381ZM45.4998 27.3589H49.6583V20.2299H51.4664L55.8833 27.3589H60.326L55.4443 19.5067C57.614 18.8609 59.2412 17.3886 59.2412 14.599V14.4957C59.2412 10.6729 56.4775 8.89062 52.1122 8.89062H45.4998V27.3589ZM49.6583 17.3886V12.0935H52.0089C54.0236 12.0935 55.1601 12.7393 55.1601 14.6248V14.7282C55.1601 16.5104 54.1011 17.3886 52.0089 17.3886H49.6583ZM67.0803 27.2215C70.774 27.2215 73.0986 25.5943 73.5377 22.6755H69.9991C69.7666 23.812 68.9142 24.5611 67.1837 24.5611C65.1431 24.5611 63.9291 23.2696 63.8258 21.0225H73.5636V19.9893C73.5636 15.159 70.464 13.1185 66.977 13.1185C63.0509 13.1185 60.0287 15.8823 60.0287 20.1442V20.3508C60.0287 24.6644 62.9992 27.2215 67.0803 27.2215ZM63.8774 18.7236C64.1615 16.8122 65.2981 15.7015 66.977 15.7015C68.7593 15.7015 69.7925 16.683 69.9216 18.7236H63.8774ZM86.1982 27.2226C88.4198 27.2226 89.7883 26.1895 90.4857 24.8205V26.9385H94.2053V13.4296H90.4857V21.3593C90.4857 23.3483 89.2458 24.3297 87.6708 24.3297C86.0696 24.3297 85.3197 23.4515 85.3197 21.6176V13.4296H81.6006V22.1342C81.6006 25.6729 83.5636 27.2226 86.1982 27.2226ZM100.49 26.9374H96.7446V13.4285H100.49V15.4948C101.162 14.2292 102.608 13.1185 104.623 13.1185C106.405 13.1185 107.749 13.8676 108.394 15.469C109.479 13.8417 111.235 13.1185 112.94 13.1185C115.446 13.1185 117.383 14.6941 117.383 18.2845V26.9374H113.663V18.6978C113.663 16.9671 112.888 16.1922 111.545 16.1922C110.099 16.1922 108.937 17.1222 108.937 18.9561V26.9374H105.217V18.6978C105.217 16.9671 104.417 16.1922 103.099 16.1922C101.652 16.1922 100.49 17.1222 100.49 18.9561V26.9374ZM126.031 27.2215C129.725 27.2215 132.05 25.5943 132.489 22.6755H128.95C128.717 23.812 127.865 24.5611 126.134 24.5611C124.094 24.5611 122.88 23.2696 122.777 21.0225H132.515V19.9893C132.515 15.159 129.415 13.1185 125.928 13.1185C122.002 13.1185 118.98 15.8823 118.98 20.1442V20.3508C118.98 24.6644 121.95 27.2215 126.031 27.2215ZM122.829 18.7236C123.113 16.8122 124.25 15.7015 125.928 15.7015C127.71 15.7015 128.744 16.683 128.873 18.7236H122.829Z" fill="white"/>
</svg>
