<svg width="136" height="24" viewBox="0 0 136 24" fill="none" xmlns="http://www.w3.org/2000/svg">
<path fill-rule="evenodd" clip-rule="evenodd" d="M36.5691 0.640747L25.0597 23.1407H14.2489L19.0657 13.8157H18.8495C14.8758 18.9742 8.94678 22.3701 0.498901 23.1407V13.9449C0.498901 13.9449 5.90321 13.6256 9.08025 10.2854H0.498901V0.640925H10.1434V8.5734L10.3599 8.57251L14.301 0.640925H21.5949V8.5231L21.8113 8.52275L25.9003 0.640747H36.5691Z" fill="white"/>
<path d="M99.3319 20.6572H102.438V2.82825H99.3319V20.6572Z" fill="white"/>
<path fill-rule="evenodd" clip-rule="evenodd" d="M82.2081 20.4752C82.8831 20.7558 83.5696 20.8962 84.2675 20.8962C85.4203 20.8962 86.452 20.6156 87.3622 20.0542C88.2723 19.4929 88.9778 18.7193 89.4785 17.7332C89.9791 16.7396 90.2293 15.6131 90.2293 14.3539C90.2293 13.0948 89.9715 11.9685 89.4557 10.9748C88.9398 9.98114 88.2231 9.21124 87.3052 8.6651C86.3875 8.11139 85.3445 7.83833 84.1763 7.8459C83.4331 7.8459 82.7201 7.99003 82.0373 8.27827C81.3547 8.5665 80.7858 8.9761 80.3307 9.50707C80.2956 9.54749 80.2615 9.58832 80.2283 9.62955V2.83969H77.1108V20.6573H80.2056L80.1993 18.9928C80.2793 19.0909 80.365 19.1868 80.4558 19.2806C80.9488 19.7888 81.533 20.1869 82.2081 20.4752ZM85.3938 17.5967C84.8856 17.9077 84.3053 18.0632 83.653 18.0632C83.0082 18.0632 82.4166 17.9038 81.8781 17.5853C81.3395 17.2591 80.911 16.8154 80.5923 16.2541C80.2813 15.6928 80.1258 15.0556 80.1258 14.3426C80.1183 13.6296 80.27 12.9924 80.581 12.4312C80.8996 11.8623 81.3281 11.4223 81.8667 11.1113C82.4052 10.7928 83.0007 10.6373 83.653 10.6448C84.3053 10.6373 84.8856 10.789 85.3938 11.1C85.9096 11.4034 86.304 11.8395 86.5771 12.4084C86.8577 12.9697 86.9981 13.6144 86.9981 14.3426C86.9981 15.0708 86.8577 15.7156 86.5771 16.2768C86.304 16.8382 85.9096 17.2781 85.3938 17.5967Z" fill="white"/>
<path d="M41.069 3.90918H44.6188L47.7943 15.5062L51.1725 3.90918H54.1307L57.7943 15.2734L60.8436 3.90918H64.0976L59.2962 20.6573H56.2356L52.5101 9.55528L49.0903 20.6573H45.9956L41.069 3.90918Z" fill="white"/>
<path fill-rule="evenodd" clip-rule="evenodd" d="M69.3402 20.953C68.1037 20.9606 66.9887 20.6875 65.9951 20.1339C65.0089 19.5725 64.2316 18.795 63.6626 17.8014C63.1013 16.8078 62.8207 15.6738 62.8207 14.3994C62.8207 13.163 63.1089 12.0443 63.6854 11.043C64.2618 10.0418 65.0431 9.26049 66.0292 8.69919C67.0153 8.13789 68.1151 7.85724 69.3287 7.85724C70.6941 7.85724 71.8887 8.16064 72.9127 8.76745C73.9443 9.37426 74.7142 10.2352 75.2224 11.3502C75.7382 12.4576 75.9241 13.7281 75.7799 15.1618H66.0341C66.0613 15.7329 66.2038 16.2525 66.4616 16.7205C66.7498 17.2363 67.1518 17.6383 67.6675 17.9265C68.1834 18.2148 68.7598 18.3589 69.3971 18.3589C69.8824 18.3513 70.3338 18.2679 70.7509 18.1086C71.1682 17.9418 71.5208 17.718 71.8091 17.4373C72.1049 17.1566 72.3136 16.8381 72.4349 16.4816H75.6889C75.4917 17.3539 75.0973 18.1314 74.5057 18.814C73.9139 19.4891 73.1707 20.0163 72.2756 20.3955C71.3806 20.7748 70.4021 20.9606 69.3402 20.953ZM66.4729 12.0329C66.2912 12.3499 66.1652 12.6911 66.0951 13.0569H72.5554C72.5086 12.5949 72.3659 12.1739 72.1277 11.7939C71.8546 11.3464 71.4829 11.0013 71.0127 10.7586C70.5424 10.5083 70.0114 10.3831 69.4198 10.3831C68.7902 10.3831 68.2176 10.5272 67.7017 10.8155C67.1859 11.1037 66.7763 11.5095 66.4729 12.0329Z" fill="white"/>
<path d="M92.5167 8.11895C92.5167 7.10254 92.7479 6.1999 93.2107 5.41104C93.6733 4.6146 94.3219 3.9964 95.1563 3.55646C95.9982 3.10894 96.9805 2.87759 98.103 2.86243V5.62721C97.5797 5.6348 97.1322 5.74479 96.7605 5.95718C96.3964 6.16198 96.1158 6.46159 95.9185 6.85601C95.737 7.21914 95.639 7.64011 95.6247 8.11895H98.0348V10.7472H95.6228V20.6573H92.5167V10.7472H90.5142V8.11895H92.5167Z" fill="white"/>
<path fill-rule="evenodd" clip-rule="evenodd" d="M110.334 20.9302C109.067 20.9302 107.933 20.6533 106.932 20.0997C105.938 19.5383 105.157 18.7647 104.588 17.7786C104.027 16.785 103.746 15.6586 103.746 14.3993C103.746 13.1327 104.027 12.0025 104.588 11.0088C105.157 10.0076 105.938 9.23009 106.932 8.67638C107.933 8.12266 109.067 7.84579 110.334 7.84579C111.608 7.84579 112.746 8.12266 113.747 8.67638C114.756 9.23009 115.541 10.0038 116.102 10.9974C116.663 11.9911 116.948 13.1251 116.956 14.3993C116.948 15.6586 116.663 16.785 116.102 17.7786C115.548 18.7647 114.767 19.5383 113.758 20.0997C112.75 20.6533 111.608 20.9302 110.334 20.9302ZM110.334 18.0745C111.001 18.0745 111.593 17.9227 112.109 17.6193C112.624 17.3083 113.023 16.876 113.303 16.3222C113.584 15.761 113.724 15.12 113.724 14.3993C113.724 13.6712 113.584 13.0265 113.303 12.4652C113.023 11.9039 112.624 11.4715 112.109 11.1681C111.593 10.8571 111.001 10.7016 110.334 10.7016C109.674 10.7016 109.086 10.8571 108.57 11.1681C108.062 11.4715 107.667 11.9039 107.387 12.4652C107.106 13.0265 106.97 13.6712 106.977 14.3993C106.977 15.12 107.118 15.761 107.398 16.3222C107.686 16.876 108.081 17.3083 108.581 17.6193C109.09 17.9227 109.674 18.0745 110.334 18.0745Z" fill="white"/>
<path d="M120.312 8.11893H116.853L120.597 20.6573H123.623L126.085 12.649L128.743 20.6573H131.724L135.479 8.11893H132.35L130.22 15.9233L127.866 8.11893H124.84L122.498 16.0951L120.312 8.11893Z" fill="white"/>
</svg>
