<svg width="859" height="1162" viewBox="0 0 859 1162" fill="none" xmlns="http://www.w3.org/2000/svg">
<path d="M73.2779 581L654.282 1162H627.252L46.2479 581L52.9975 574.25L627.252 0L654.282 0L73.2779 581ZM1116.76 0L1089.73 0L515.476 574.25L508.726 581L1089.73 1162H1116.76L535.756 581L1116.76 0ZM1209.26 0L1182.23 0L607.972 574.25L601.222 581L1182.23 1162H1209.26L628.252 581L1209.26 0ZM1163.01 0L1135.98 0L561.724 574.25L554.974 581L1135.98 1162H1163.01L582.004 581L1163.01 0ZM1070.51 0L1043.48 0L469.228 574.25L462.479 581L1043.48 1162H1070.51L489.509 581L1070.51 0ZM608.034 0L581.004 0L6.74969 574.25L0 581L581.004 1162H608.034L27.03 581L608.034 0ZM1255.5 0L1228.47 0L654.22 574.25L647.47 581L1228.47 1162H1255.5L674.5 581L1255.5 0ZM766.996 581L1348 0L1320.97 0L746.715 574.25L739.966 581L1320.97 1162H1348L766.996 581ZM1301.75 0L1274.72 0L700.468 574.25L693.718 581L1274.72 1162H1301.75L720.748 581L1301.75 0ZM1024.27 0L997.235 0L422.98 574.25L416.231 581L997.235 1162H1024.27L443.261 581L1024.27 0ZM746.778 0L719.748 0L145.493 574.25L138.744 581L719.748 1162H746.778L165.774 581L746.778 0ZM700.53 0L673.5 0L99.2454 574.25L92.4957 581L673.5 1162H700.53L119.526 581L700.53 0ZM793.026 0L765.996 0L191.741 574.25L184.991 581L765.996 1162H793.026L212.021 581L793.026 0ZM839.274 0L812.244 0L237.989 574.25L231.239 581L812.244 1162H839.274L258.269 581L839.274 0ZM931.769 0L904.739 0L330.485 574.25L323.735 581L904.739 1162L931.769 1162L350.765 581L931.769 0ZM885.521 0L858.492 0L284.237 574.25L277.487 581L858.492 1162H885.521L304.517 581L885.521 0ZM978.017 0L950.987 0L376.733 574.25L369.983 581L950.987 1162H978.017L397.013 581L978.017 0Z" fill="url(#paint0_linear_8499_5391)" fill-opacity="0.5"/>
<defs>
<linearGradient id="paint0_linear_8499_5391" x1="674" y1="0" x2="674" y2="1162" gradientUnits="userSpaceOnUse">
<stop stop-opacity="0.05"/>
<stop offset="0.5"/>
<stop offset="1" stop-opacity="0.05"/>
</linearGradient>
</defs>
</svg>
