<svg width="52" height="52" viewBox="0 0 52 52" fill="none" xmlns="http://www.w3.org/2000/svg">
<path d="M4.12498 29.3794C3.22165 29.3794 2.43269 29.0419 1.75811 28.3669C1.08311 27.6923 0.745605 26.9033 0.745605 26C0.745605 25.0966 1.08311 24.3077 1.75811 23.6331C2.43269 22.9581 3.22165 22.6206 4.12498 22.6206C5.02831 22.6206 5.81727 22.9581 6.49186 23.6331C7.16686 24.3077 7.50436 25.0966 7.50436 26C7.50436 26.9033 7.16686 27.6923 6.49186 28.3669C5.81727 29.0419 5.02831 29.3794 4.12498 29.3794ZM7.19561 41.6956L15.3206 33.5706C15.7456 33.1456 16.2429 32.9435 16.8125 32.9644C17.3821 32.9852 17.8794 33.2081 18.3044 33.6331C18.7294 34.0581 18.9419 34.5658 18.9419 35.1562C18.9419 35.7466 18.7294 36.2544 18.3044 36.6794L10.1794 44.8044C9.75436 45.2294 9.25706 45.4314 8.68748 45.4106C8.1179 45.3898 7.62061 45.1669 7.19561 44.7419C6.77061 44.3169 6.5581 43.8091 6.5581 43.2187C6.5581 42.6283 6.77061 42.1206 7.19561 41.6956ZM15.3206 18.2419L7.19561 10.1794C6.77061 9.75436 6.56852 9.25706 6.58935 8.68748C6.61019 8.1179 6.83311 7.62061 7.25811 7.19561C7.68311 6.77061 8.19081 6.55811 8.78123 6.55811C9.37165 6.55811 9.87936 6.77061 10.3044 7.19561L18.3669 15.2581C18.7919 15.6831 19.0044 16.1804 19.0044 16.75C19.0044 17.3196 18.7919 17.8169 18.3669 18.2419C17.9419 18.6669 17.4341 18.8794 16.8437 18.8794C16.2533 18.8794 15.7456 18.6669 15.3206 18.2419ZM26 51.2544C25.0966 51.2544 24.3077 50.9169 23.6331 50.2419C22.9581 49.5673 22.6206 48.7783 22.6206 47.875C22.6206 46.9716 22.9581 46.1827 23.6331 45.5081C24.3077 44.8331 25.0966 44.4956 26 44.4956C26.9033 44.4956 27.6923 44.8331 28.3669 45.5081C29.0419 46.1827 29.3794 46.9716 29.3794 47.875C29.3794 48.7783 29.0419 49.5673 28.3669 50.2419C27.6923 50.9169 26.9033 51.2544 26 51.2544ZM26 7.50436C25.0966 7.50436 24.3077 7.16686 23.6331 6.49186C22.9581 5.81727 22.6206 5.02831 22.6206 4.12498C22.6206 3.22165 22.9581 2.43269 23.6331 1.75811C24.3077 1.08311 25.0966 0.745605 26 0.745605C26.9033 0.745605 27.6923 1.08311 28.3669 1.75811C29.0419 2.43269 29.3794 3.22165 29.3794 4.12498C29.3794 5.02831 29.0419 5.81727 28.3669 6.49186C27.6923 7.16686 26.9033 7.50436 26 7.50436ZM33.6956 15.1956L41.7581 7.13311C42.1831 6.70811 42.6804 6.50602 43.25 6.52686C43.8196 6.54769 44.3169 6.77061 44.7419 7.19561C45.1669 7.62061 45.3794 8.12831 45.3794 8.71873C45.3794 9.30915 45.1669 9.81686 44.7419 10.2419L36.6794 18.3044C36.2552 18.7294 35.7571 18.9314 35.185 18.9106C34.6133 18.8898 34.1185 18.6662 33.7006 18.24C33.271 17.8141 33.0566 17.3064 33.0575 16.7169C33.0579 16.1277 33.2706 15.6206 33.6956 15.1956ZM41.7581 44.6794L33.6331 36.6169C33.2081 36.1919 33.006 35.6946 33.0269 35.125C33.0477 34.5554 33.2706 34.0581 33.6956 33.6331C34.1206 33.2081 34.6283 32.9956 35.2187 32.9956C35.8091 32.9956 36.3169 33.2081 36.7419 33.6331L44.8044 41.6956C45.2294 42.1206 45.4419 42.6179 45.4419 43.1875C45.4419 43.7571 45.2294 44.2544 44.8044 44.6794C44.3794 45.1044 43.8716 45.3169 43.2812 45.3169C42.6908 45.3169 42.1831 45.1044 41.7581 44.6794ZM47.875 29.3794C46.9716 29.3794 46.1827 29.0419 45.5081 28.3669C44.8331 27.6923 44.4956 26.9033 44.4956 26C44.4956 25.0966 44.8331 24.3077 45.5081 23.6331C46.1827 22.9581 46.9716 22.6206 47.875 22.6206C48.7783 22.6206 49.5673 22.9581 50.2419 23.6331C50.9169 24.3077 51.2544 25.0966 51.2544 26C51.2544 26.9033 50.9169 27.6923 50.2419 28.3669C49.5673 29.0419 48.7783 29.3794 47.875 29.3794Z" fill="#2899D5"/>
</svg>
