<svg width="57" height="56" viewBox="0 0 57 56" fill="none" xmlns="http://www.w3.org/2000/svg">
<path d="M5.05109 55.8738C3.90109 55.8738 2.90401 55.4515 2.05984 54.6069C1.21526 53.7627 0.792969 52.7656 0.792969 51.6156V46.0269C0.792969 45.4261 0.998594 44.9211 1.40984 44.5119C1.82109 44.1027 2.3288 43.8981 2.93297 43.8981C3.53714 43.8981 4.0413 44.1027 4.44547 44.5119C4.84922 44.9211 5.05109 45.4261 5.05109 46.0269V51.6156H10.6398C11.2407 51.6156 11.7457 51.8213 12.1548 52.2325C12.564 52.6438 12.7686 53.1515 12.7686 53.7556C12.7686 54.3598 12.564 54.8638 12.1548 55.2675C11.7457 55.6717 11.2407 55.8738 10.6398 55.8738H5.05109ZM52.2973 55.8738H46.7086C46.1078 55.8738 45.6028 55.6681 45.1936 55.2569C44.7844 54.8456 44.5798 54.3379 44.5798 53.7338C44.5798 53.1296 44.7844 52.6254 45.1936 52.2213C45.6028 51.8175 46.1078 51.6156 46.7086 51.6156H52.2973V46.0269C52.2973 45.4261 52.503 44.9211 52.9142 44.5119C53.3255 44.1027 53.8332 43.8981 54.4373 43.8981C55.0415 43.8981 55.5455 44.1027 55.9492 44.5119C56.3534 44.9211 56.5555 45.4261 56.5555 46.0269V51.6156C56.5555 52.7656 56.1332 53.7627 55.2886 54.6069C54.4444 55.4515 53.4473 55.8738 52.2973 55.8738ZM28.5998 44.2513C24.0411 44.2513 19.8669 43.0509 16.0773 40.65C12.2873 38.2492 9.25818 34.9446 6.98984 30.7363C6.75193 30.3217 6.5838 29.8842 6.48547 29.4238C6.38714 28.9633 6.33797 28.4938 6.33797 28.015C6.33797 27.5275 6.39234 27.0533 6.50109 26.5925C6.60984 26.1313 6.77276 25.6883 6.98984 25.2638C9.25818 21.0138 12.2851 17.6858 16.0705 15.28C19.8559 12.8742 24.0288 11.6713 28.5892 11.6713C33.1496 11.6713 37.338 12.8717 41.1542 15.2725C44.9705 17.6733 48.0128 20.9988 50.2811 25.2488C50.519 25.6733 50.6896 26.119 50.793 26.5856C50.8963 27.0523 50.948 27.5188 50.948 27.985C50.948 28.4517 50.8938 28.9221 50.7855 29.3963C50.6771 29.8704 50.504 30.3221 50.2661 30.7513C48.0078 34.9596 44.9717 38.2617 41.158 40.6575C37.3442 43.0533 33.1582 44.2513 28.5998 44.2513ZM28.5948 40.0981C32.4561 40.0981 36.0509 39.0117 39.3792 36.8388C42.7075 34.6663 45.2517 31.7175 47.0117 27.9925C45.2517 24.2675 42.7082 21.3084 39.3811 19.115C36.054 16.9217 32.4567 15.825 28.5892 15.825C24.7292 15.825 21.1492 16.9217 17.8492 19.115C14.5492 21.3084 12.0192 24.2675 10.2592 27.9925C12.0192 31.7175 14.5498 34.6663 17.8511 36.8388C21.1523 39.0117 24.7336 40.0981 28.5948 40.0981ZM28.6655 36.28C30.968 36.28 32.9417 35.4673 34.5867 33.8419C36.2317 32.2165 37.0542 30.2646 37.0542 27.9863C37.0542 25.7079 36.2332 23.7502 34.5911 22.1131C32.949 20.4761 30.9707 19.6575 28.6561 19.6575C26.3615 19.6575 24.4171 20.4696 22.823 22.0938C21.2288 23.7179 20.4317 25.6852 20.4317 27.9956C20.4317 30.3061 21.2334 32.2644 22.8367 33.8706C24.4405 35.4769 26.3834 36.28 28.6655 36.28ZM28.6561 32.2456C27.4728 32.2456 26.4711 31.8329 25.6511 31.0075C24.8311 30.1817 24.4211 29.179 24.4211 27.9994C24.4211 26.8194 24.8307 25.8065 25.6498 24.9606C26.469 24.1148 27.4717 23.6919 28.658 23.6919C29.8442 23.6919 30.8578 24.1108 31.6986 24.9488C32.5398 25.7867 32.9605 26.804 32.9605 28.0006C32.9605 29.1806 32.5419 30.1831 31.7048 31.0081C30.8678 31.8331 29.8515 32.2456 28.6561 32.2456ZM56.5555 4.36939V9.95814C56.5555 10.559 56.3498 11.064 55.9386 11.4731C55.5273 11.8823 55.0196 12.0869 54.4155 12.0869C53.8113 12.0869 53.3071 11.8823 52.903 11.4731C52.4992 11.064 52.2973 10.559 52.2973 9.95814V4.36939H46.7086C46.1078 4.36939 45.6028 4.16376 45.1936 3.75251C44.7844 3.34126 44.5798 2.83356 44.5798 2.22939C44.5798 1.62522 44.7844 1.12126 45.1936 0.717514C45.6028 0.313347 46.1078 0.111267 46.7086 0.111267H52.2973C53.4473 0.111267 54.4444 0.533556 55.2886 1.37814C56.1332 2.22231 56.5555 3.21939 56.5555 4.36939ZM5.05109 0.111267H10.6398C11.2407 0.111267 11.7457 0.316892 12.1548 0.728142C12.564 1.13939 12.7686 1.6471 12.7686 2.25127C12.7686 2.85543 12.564 3.3596 12.1548 3.76376C11.7457 4.16751 11.2407 4.36939 10.6398 4.36939H5.05109V9.95814C5.05109 10.559 4.84547 11.064 4.43422 11.4731C4.02297 11.8823 3.51526 12.0869 2.91109 12.0869C2.30693 12.0869 1.80297 11.8823 1.39922 11.4731C0.995052 11.064 0.792969 10.559 0.792969 9.95814V4.36939C0.792969 3.21939 1.21526 2.22231 2.05984 1.37814C2.90401 0.533556 3.90109 0.111267 5.05109 0.111267Z" fill="#2899D5"/>
</svg>
