<svg width="46" height="46" viewBox="0 0 46 46" fill="none" xmlns="http://www.w3.org/2000/svg">
<path d="M9.5556 45.8437H4.38435C3.23435 45.8437 2.23726 45.4214 1.3931 44.5768C0.548512 43.7327 0.126221 42.7356 0.126221 41.5856V23C0.126221 19.825 0.727471 16.8506 1.92997 14.0768C3.13247 11.3027 4.76414 8.88537 6.82497 6.82495C8.88539 4.76412 11.3027 3.12995 14.0768 1.92245C16.8506 0.714955 19.825 0.111206 23 0.111206C26.175 0.111206 29.1493 0.714955 31.9231 1.92245C34.6973 3.12995 37.1145 4.76412 39.175 6.82495C41.2358 8.88537 42.87 11.3027 44.0775 14.0768C45.285 16.8506 45.8887 19.825 45.8887 23V41.5856C45.8887 42.7356 45.465 43.7327 44.6175 44.5768C43.7704 45.4214 42.7698 45.8437 41.6156 45.8437H36.4593C35.2739 45.8437 34.2654 45.4266 33.4337 44.5925C32.6021 43.7587 32.1862 42.7564 32.1862 41.5856V30.9143C32.1862 29.7435 32.6021 28.7412 33.4337 27.9075C34.2654 27.0733 35.2739 26.6562 36.4593 26.6562H41.6156V23C41.6156 17.8141 39.8095 13.4152 36.1975 9.80308C32.5858 6.19058 28.1875 4.38433 23.0025 4.38433C17.8175 4.38433 13.4183 6.19058 9.80497 9.80308C6.19122 13.4152 4.38435 17.8141 4.38435 23V26.6562H9.5556C10.7264 26.6562 11.7289 27.0733 12.5631 27.9075C13.3968 28.7412 13.8137 29.7435 13.8137 30.9143V41.5856C13.8137 42.7564 13.3968 43.7587 12.5631 44.5925C11.7289 45.4266 10.7264 45.8437 9.5556 45.8437ZM9.5556 30.9143H4.38435V41.5856H9.5556V30.9143ZM36.4593 30.9143V41.5856H41.6156V30.9143H36.4593Z" fill="#2899D5"/>
</svg>
