<svg width="52" height="50" viewBox="0 0 52 50" fill="none" xmlns="http://www.w3.org/2000/svg">
<path d="M26.3334 28.7406C25.9601 28.7406 25.6157 28.7044 25.3003 28.6319C24.9845 28.5594 24.6657 28.4298 24.3441 28.2431L2.03344 16.3125C1.6501 16.0842 1.37552 15.8098 1.20969 15.4894C1.04385 15.1686 0.960938 14.8215 0.960938 14.4481C0.960938 14.0752 1.04385 13.7308 1.20969 13.415C1.37552 13.0996 1.6501 12.8277 2.03344 12.5994L24.3441 0.668766C24.6657 0.492099 24.9845 0.365014 25.3003 0.287514C25.6157 0.210014 25.9601 0.171265 26.3334 0.171265C26.7068 0.171265 27.0511 0.210014 27.3666 0.287514C27.6824 0.365014 28.0061 0.492099 28.3378 0.668766L50.6334 12.5994C51.0168 12.8277 51.3043 13.0996 51.4959 13.415C51.6876 13.7308 51.7834 14.0752 51.7834 14.4481C51.7834 14.8215 51.6876 15.1686 51.4959 15.4894C51.3043 15.8098 51.0168 16.0842 50.6334 16.3125L28.3378 28.2431C28.0061 28.4298 27.6824 28.5594 27.3666 28.6319C27.0511 28.7044 26.7068 28.7406 26.3334 28.7406ZM26.3334 24.5394L45.4978 14.4631L26.3334 4.37252L7.24656 14.4631L26.3334 24.5394ZM26.3334 35.1238L47.4609 23.8706C47.5643 23.8094 47.8859 23.7371 48.4259 23.6538C48.9855 23.6538 49.4728 23.8506 49.8878 24.2444C50.3028 24.6386 50.5103 25.1363 50.5103 25.7375C50.5103 26.1008 50.4195 26.4379 50.2378 26.7488C50.0561 27.0592 49.7786 27.3236 49.4053 27.5419L28.3378 38.78C28.0061 38.9667 27.6824 39.0963 27.3666 39.1688C27.0511 39.2408 26.7068 39.2769 26.3334 39.2769C25.9601 39.2769 25.6157 39.2408 25.3003 39.1688C24.9845 39.0963 24.6657 38.9617 24.3441 38.765L3.33906 27.5419C2.97573 27.3236 2.70073 27.0592 2.51406 26.7488C2.3274 26.4379 2.23406 26.1008 2.23406 25.7375C2.23406 25.1363 2.44156 24.6386 2.85656 24.2444C3.27156 23.8506 3.75885 23.6538 4.31844 23.6538C4.4951 23.6538 4.66635 23.6771 4.83219 23.7238C4.99802 23.7704 5.14844 23.8402 5.28344 23.9331L26.3334 35.1238ZM26.3334 45.6606L47.4609 34.4075C47.5743 34.3358 47.8959 34.2684 48.4259 34.205C48.9855 34.205 49.4728 34.4021 49.8878 34.7963C50.3028 35.1904 50.5103 35.6831 50.5103 36.2744C50.5103 36.6377 50.4195 36.9748 50.2378 37.2856C50.0561 37.5961 49.7786 37.8604 49.4053 38.0788L28.3378 49.3169C28.0061 49.5031 27.6824 49.6325 27.3666 49.705C27.0511 49.7775 26.7068 49.8138 26.3334 49.8138C25.9601 49.8138 25.6157 49.7775 25.3003 49.705C24.9845 49.6325 24.6657 49.5031 24.3441 49.3169L3.33906 38.0788C2.97573 37.8604 2.70073 37.5961 2.51406 37.2856C2.3274 36.9748 2.23406 36.6377 2.23406 36.2744C2.23406 35.6831 2.44156 35.1904 2.85656 34.7963C3.27156 34.4021 3.75885 34.205 4.31844 34.205C4.4851 34.205 4.65385 34.2284 4.82469 34.275C4.99552 34.3217 5.14844 34.3867 5.28344 34.47L26.3334 45.6606Z" fill="#2899D5"/>
</svg>
