<svg width="49" height="48" viewBox="0 0 49 48" fill="none" xmlns="http://www.w3.org/2000/svg">
<path d="M1.89789 30.2769C1.49164 30.2769 1.15602 30.1452 0.891016 29.8819C0.626432 29.6186 0.494141 29.2836 0.494141 28.8769C0.494141 28.4706 0.625807 28.135 0.889141 27.87C1.15247 27.6054 1.48747 27.4731 1.89414 27.4731C2.30039 27.4731 2.63602 27.6048 2.90102 27.8681C3.1656 28.1315 3.29789 28.4665 3.29789 28.8731C3.29789 29.2794 3.16622 29.615 2.90289 29.88C2.63956 30.1446 2.30456 30.2769 1.89789 30.2769ZM1.89789 20.5269C1.49164 20.5269 1.15602 20.3952 0.891016 20.1319C0.626432 19.8686 0.494141 19.5336 0.494141 19.1269C0.494141 18.7206 0.625807 18.385 0.889141 18.12C1.15247 17.8554 1.48747 17.7231 1.89414 17.7231C2.30039 17.7231 2.63602 17.8548 2.90102 18.1181C3.1656 18.3815 3.29789 18.7165 3.29789 19.1231C3.29789 19.5294 3.16622 19.865 2.90289 20.13C2.63956 20.3946 2.30456 20.5269 1.89789 20.5269ZM9.34039 41.4644C8.63539 41.4644 8.04727 41.2311 7.57602 40.7644C7.10477 40.2973 6.86914 39.7115 6.86914 39.0069C6.86914 38.3019 7.10248 37.7138 7.56914 37.2425C8.03623 36.7713 8.62206 36.5356 9.32664 36.5356C10.0316 36.5356 10.6198 36.769 11.091 37.2356C11.5623 37.7027 11.7979 38.2886 11.7979 38.9931C11.7979 39.6981 11.5646 40.2863 11.0979 40.7575C10.6308 41.2288 10.045 41.4644 9.34039 41.4644ZM9.34039 31.3394C8.63539 31.3394 8.04727 31.1061 7.57602 30.6394C7.10477 30.1723 6.86914 29.5865 6.86914 28.8819C6.86914 28.1769 7.10248 27.5888 7.56914 27.1175C8.03623 26.6463 8.62206 26.4106 9.32664 26.4106C10.0316 26.4106 10.6198 26.644 11.091 27.1106C11.5623 27.5777 11.7979 28.1636 11.7979 28.8681C11.7979 29.5731 11.5646 30.1613 11.0979 30.6325C10.6308 31.1038 10.045 31.3394 9.34039 31.3394ZM9.34039 21.5894C8.63539 21.5894 8.04727 21.3561 7.57602 20.8894C7.10477 20.4223 6.86914 19.8365 6.86914 19.1319C6.86914 18.4269 7.10248 17.8388 7.56914 17.3675C8.03623 16.8963 8.62206 16.6606 9.32664 16.6606C10.0316 16.6606 10.6198 16.894 11.091 17.3606C11.5623 17.8277 11.7979 18.4136 11.7979 19.1181C11.7979 19.8231 11.5646 20.4113 11.0979 20.8825C10.6308 21.3538 10.045 21.5894 9.34039 21.5894ZM9.34039 11.4644C8.63539 11.4644 8.04727 11.2311 7.57602 10.7644C7.10477 10.2973 6.86914 9.71148 6.86914 9.00689C6.86914 8.30189 7.10248 7.71377 7.56914 7.24252C8.03623 6.77127 8.62206 6.53565 9.32664 6.53565C10.0316 6.53565 10.6198 6.76898 11.091 7.23565C11.5623 7.70273 11.7979 8.28856 11.7979 8.99315C11.7979 9.69815 11.5646 10.2863 11.0979 10.7575C10.6308 11.2288 10.045 11.4644 9.34039 11.4644ZM19.4585 32.3394C18.501 32.3394 17.6841 32.0015 17.0079 31.3256C16.3321 30.6494 15.9941 29.8325 15.9941 28.875C15.9941 27.9175 16.3321 27.1006 17.0079 26.4244C17.6841 25.7486 18.501 25.4106 19.4585 25.4106C20.416 25.4106 21.2329 25.7486 21.9091 26.4244C22.585 27.1006 22.9229 27.9175 22.9229 28.875C22.9229 29.8325 22.585 30.6494 21.9091 31.3256C21.2329 32.0015 20.416 32.3394 19.4585 32.3394ZM19.4585 22.5894C18.501 22.5894 17.6841 22.2515 17.0079 21.5756C16.3321 20.8994 15.9941 20.0825 15.9941 19.125C15.9941 18.1675 16.3321 17.3506 17.0079 16.6744C17.6841 15.9986 18.501 15.6606 19.4585 15.6606C20.416 15.6606 21.2329 15.9986 21.9091 16.6744C22.585 17.3506 22.9229 18.1675 22.9229 19.125C22.9229 20.0825 22.585 20.8994 21.9091 21.5756C21.2329 22.2515 20.416 22.5894 19.4585 22.5894ZM19.4654 41.4644C18.7604 41.4644 18.1723 41.2311 17.701 40.7644C17.2298 40.2973 16.9941 39.7115 16.9941 39.0069C16.9941 38.3019 17.2275 37.7138 17.6941 37.2425C18.1612 36.7713 18.7471 36.5356 19.4516 36.5356C20.1566 36.5356 20.7448 36.769 21.216 37.2356C21.6873 37.7027 21.9229 38.2886 21.9229 38.9931C21.9229 39.6981 21.6896 40.2863 21.2229 40.7575C20.7558 41.2288 20.17 41.4644 19.4654 41.4644ZM19.4654 11.4644C18.7604 11.4644 18.1723 11.2311 17.701 10.7644C17.2298 10.2973 16.9941 9.71148 16.9941 9.00689C16.9941 8.30189 17.2275 7.71377 17.6941 7.24252C18.1612 6.77127 18.7471 6.53565 19.4516 6.53565C20.1566 6.53565 20.7448 6.76898 21.216 7.23565C21.6873 7.70273 21.9229 8.28856 21.9229 8.99315C21.9229 9.69815 21.6896 10.2863 21.2229 10.7575C20.7558 11.2288 20.17 11.4644 19.4654 11.4644ZM19.4604 47.8394C19.0541 47.8394 18.7185 47.7077 18.4535 47.4444C18.1889 47.1811 18.0566 46.8461 18.0566 46.4394C18.0566 46.0331 18.1883 45.6975 18.4516 45.4325C18.715 45.1679 19.05 45.0356 19.4566 45.0356C19.8629 45.0356 20.1985 45.1673 20.4635 45.4307C20.7281 45.694 20.8604 46.029 20.8604 46.4357C20.8604 46.8419 20.7287 47.1775 20.4654 47.4425C20.2021 47.7071 19.8671 47.8394 19.4604 47.8394ZM19.4604 2.96439C19.0541 2.96439 18.7185 2.83273 18.4535 2.56939C18.1889 2.30606 18.0566 1.97106 18.0566 1.5644C18.0566 1.15815 18.1883 0.822518 18.4516 0.557518C18.715 0.292935 19.05 0.160645 19.4566 0.160645C19.8629 0.160645 20.1985 0.292312 20.4635 0.555645C20.7281 0.818978 20.8604 1.15398 20.8604 1.56064C20.8604 1.96689 20.7287 2.30252 20.4654 2.56752C20.2021 2.8321 19.8671 2.96439 19.4604 2.96439ZM29.2085 32.3394C28.251 32.3394 27.4341 32.0015 26.7579 31.3256C26.0821 30.6494 25.7441 29.8325 25.7441 28.875C25.7441 27.9175 26.0821 27.1006 26.7579 26.4244C27.4341 25.7486 28.251 25.4106 29.2085 25.4106C30.166 25.4106 30.9829 25.7486 31.6591 26.4244C32.335 27.1006 32.6729 27.9175 32.6729 28.875C32.6729 29.8325 32.335 30.6494 31.6591 31.3256C30.9829 32.0015 30.166 32.3394 29.2085 32.3394ZM29.2085 22.5894C28.251 22.5894 27.4341 22.2515 26.7579 21.5756C26.0821 20.8994 25.7441 20.0825 25.7441 19.125C25.7441 18.1675 26.0821 17.3506 26.7579 16.6744C27.4341 15.9986 28.251 15.6606 29.2085 15.6606C30.166 15.6606 30.9829 15.9986 31.6591 16.6744C32.335 17.3506 32.6729 18.1675 32.6729 19.125C32.6729 20.0825 32.335 20.8994 31.6591 21.5756C30.9829 22.2515 30.166 22.5894 29.2085 22.5894ZM29.2154 41.4644C28.5104 41.4644 27.9223 41.2311 27.451 40.7644C26.9798 40.2973 26.7441 39.7115 26.7441 39.0069C26.7441 38.3019 26.9775 37.7138 27.4441 37.2425C27.9112 36.7713 28.4971 36.5356 29.2016 36.5356C29.9066 36.5356 30.4948 36.769 30.966 37.2356C31.4373 37.7027 31.6729 38.2886 31.6729 38.9931C31.6729 39.6981 31.4396 40.2863 30.9729 40.7575C30.5058 41.2288 29.92 41.4644 29.2154 41.4644ZM29.2154 11.4644C28.5104 11.4644 27.9223 11.2311 27.451 10.7644C26.9798 10.2973 26.7441 9.71148 26.7441 9.00689C26.7441 8.30189 26.9775 7.71377 27.4441 7.24252C27.9112 6.77127 28.4971 6.53565 29.2016 6.53565C29.9066 6.53565 30.4948 6.76898 30.966 7.23565C31.4373 7.70273 31.6729 8.28856 31.6729 8.99315C31.6729 9.69815 31.4396 10.2863 30.9729 10.7575C30.5058 11.2288 29.92 11.4644 29.2154 11.4644ZM29.5854 47.8394C29.1791 47.8394 28.8435 47.7077 28.5785 47.4444C28.3139 47.1811 28.1816 46.8461 28.1816 46.4394C28.1816 46.0331 28.3133 45.6975 28.5766 45.4325C28.84 45.1679 29.175 45.0356 29.5816 45.0356C29.9879 45.0356 30.3235 45.1673 30.5885 45.4307C30.8531 45.694 30.9854 46.029 30.9854 46.4357C30.9854 46.8419 30.8537 47.1775 30.5904 47.4425C30.3271 47.7071 29.9921 47.8394 29.5854 47.8394ZM29.2104 2.96439C28.8041 2.96439 28.4685 2.83273 28.2035 2.56939C27.9389 2.30606 27.8066 1.97106 27.8066 1.5644C27.8066 1.15815 27.9383 0.822518 28.2016 0.557518C28.465 0.292935 28.8 0.160645 29.2066 0.160645C29.6129 0.160645 29.9485 0.292312 30.2135 0.555645C30.4781 0.818978 30.6104 1.15398 30.6104 1.56064C30.6104 1.96689 30.4787 2.30252 30.2154 2.56752C29.9521 2.8321 29.6171 2.96439 29.2104 2.96439ZM39.3404 41.4644C38.6354 41.4644 38.0473 41.2311 37.576 40.7644C37.1048 40.2973 36.8691 39.7115 36.8691 39.0069C36.8691 38.3019 37.1025 37.7138 37.5691 37.2425C38.0362 36.7713 38.6221 36.5356 39.3266 36.5356C40.0316 36.5356 40.6198 36.769 41.091 37.2356C41.5623 37.7027 41.7979 38.2886 41.7979 38.9931C41.7979 39.6981 41.5646 40.2863 41.0979 40.7575C40.6308 41.2288 40.045 41.4644 39.3404 41.4644ZM39.3404 31.3394C38.6354 31.3394 38.0473 31.1061 37.576 30.6394C37.1048 30.1723 36.8691 29.5865 36.8691 28.8819C36.8691 28.1769 37.1025 27.5888 37.5691 27.1175C38.0362 26.6463 38.6221 26.4106 39.3266 26.4106C40.0316 26.4106 40.6198 26.644 41.091 27.1106C41.5623 27.5777 41.7979 28.1636 41.7979 28.8681C41.7979 29.5731 41.5646 30.1613 41.0979 30.6325C40.6308 31.1038 40.045 31.3394 39.3404 31.3394ZM39.3404 21.5894C38.6354 21.5894 38.0473 21.3561 37.576 20.8894C37.1048 20.4223 36.8691 19.8365 36.8691 19.1319C36.8691 18.4269 37.1025 17.8388 37.5691 17.3675C38.0362 16.8963 38.6221 16.6606 39.3266 16.6606C40.0316 16.6606 40.6198 16.894 41.091 17.3606C41.5623 17.8277 41.7979 18.4136 41.7979 19.1181C41.7979 19.8231 41.5646 20.4113 41.0979 20.8825C40.6308 21.3538 40.045 21.5894 39.3404 21.5894ZM39.3404 11.4644C38.6354 11.4644 38.0473 11.2311 37.576 10.7644C37.1048 10.2973 36.8691 9.71148 36.8691 9.00689C36.8691 8.30189 37.1025 7.71377 37.5691 7.24252C38.0362 6.77127 38.6221 6.53565 39.3266 6.53565C40.0316 6.53565 40.6198 6.76898 41.091 7.23565C41.5623 7.70273 41.7979 8.28856 41.7979 8.99315C41.7979 9.69815 41.5646 10.2863 41.0979 10.7575C40.6308 11.2288 40.045 11.4644 39.3404 11.4644ZM46.7729 30.2769C46.3666 30.2769 46.031 30.1452 45.766 29.8819C45.5014 29.6186 45.3691 29.2836 45.3691 28.8769C45.3691 28.4706 45.5008 28.135 45.7641 27.87C46.0275 27.6054 46.3625 27.4731 46.7691 27.4731C47.1754 27.4731 47.511 27.6048 47.776 27.8681C48.0406 28.1315 48.1729 28.4665 48.1729 28.8731C48.1729 29.2794 48.0412 29.615 47.7779 29.88C47.5146 30.1446 47.1796 30.2769 46.7729 30.2769ZM46.7729 20.5269C46.3666 20.5269 46.031 20.3952 45.766 20.1319C45.5014 19.8686 45.3691 19.5336 45.3691 19.1269C45.3691 18.7206 45.5008 18.385 45.7641 18.12C46.0275 17.8554 46.3625 17.7231 46.7691 17.7231C47.1754 17.7231 47.511 17.8548 47.776 18.1181C48.0406 18.3815 48.1729 18.7165 48.1729 19.1231C48.1729 19.5294 48.0412 19.865 47.7779 20.13C47.5146 20.3946 47.1796 20.5269 46.7729 20.5269Z" fill="#2899D5"/>
</svg>
