<svg width="52" height="52" viewBox="0 0 52 52" fill="none" xmlns="http://www.w3.org/2000/svg">
<path d="M20.0488 51.2244C18.8638 51.2244 17.8552 50.8086 17.0231 49.9769C16.1915 49.1448 15.7756 48.1363 15.7756 46.9513V41.7744C15.7756 41.1736 15.9813 40.6661 16.3925 40.2519C16.8042 39.8377 17.3115 39.6306 17.9144 39.6306C18.5177 39.6306 19.0244 39.8377 19.4344 40.2519C19.844 40.6661 20.0488 41.1736 20.0488 41.7744V46.9513H46.9663V20.0338H41.7894C41.1786 20.0338 40.6686 19.8281 40.2594 19.4169C39.8502 19.0056 39.6456 18.4979 39.6456 17.8938C39.6456 17.2896 39.8502 16.7856 40.2594 16.3819C40.6686 15.9777 41.1786 15.7756 41.7894 15.7756H46.9663C48.1367 15.7756 49.139 16.1927 49.9731 17.0269C50.8073 17.8611 51.2244 18.8633 51.2244 20.0338V46.9513C51.2244 48.1363 50.8073 49.1448 49.9731 49.9769C49.139 50.8086 48.1367 51.2244 46.9663 51.2244H20.0488ZM18.4988 36.2244C13.5613 36.2244 9.37314 34.5046 5.93438 31.065C2.49522 27.6254 0.775635 23.4367 0.775635 18.4988C0.775635 13.5613 2.49543 9.37314 5.93501 5.93439C9.37459 2.49522 13.5633 0.775635 18.5013 0.775635C23.4388 0.775635 27.6269 2.49543 31.0656 5.93501C34.5048 9.3746 36.2244 13.5633 36.2244 18.5013C36.2244 23.4388 34.5046 27.6269 31.065 31.0656C27.6254 34.5048 23.4367 36.2244 18.4988 36.2244ZM18.4838 31.9513C22.205 31.9513 25.3825 30.6425 28.0163 28.025C30.6496 25.4075 31.9663 22.2379 31.9663 18.5163C31.9663 14.795 30.6546 11.6175 28.0313 8.98376C25.4083 6.35043 22.2361 5.03376 18.5144 5.03376C14.7927 5.03376 11.6181 6.34543 8.99064 8.96876C6.36272 11.5917 5.04876 14.764 5.04876 18.4856C5.04876 22.2073 6.35751 25.3819 8.97501 28.0094C11.5925 30.6373 14.7621 31.9513 18.4838 31.9513Z" fill="#2899D5"/>
</svg>
