<svg width="42" height="52" viewBox="0 0 42 52" fill="none" xmlns="http://www.w3.org/2000/svg">
<path d="M20.6667 51.1087C20.4151 51.1087 20.1794 51.0854 19.9598 51.0387C19.7398 50.9921 19.5248 50.9221 19.3148 50.8287C13.4732 48.8704 8.84255 45.3148 5.42297 40.1618C2.00297 35.0085 0.292969 29.3898 0.292969 23.3056V11.1668C0.292969 10.2552 0.546927 9.43101 1.05484 8.69434C1.56276 7.95768 2.23089 7.42997 3.05922 7.11122L19.1748 1.09372C19.6832 0.907053 20.1805 0.813721 20.6667 0.813721C21.153 0.813721 21.6503 0.907053 22.1586 1.09372L38.2742 7.11122C39.1025 7.42997 39.7732 7.95768 40.2861 8.69434C40.799 9.43101 41.0555 10.2552 41.0555 11.1668V23.3056C41.0555 29.3898 39.343 35.0085 35.918 40.1618C32.4934 45.3148 27.8603 48.8704 22.0186 50.8287C21.8086 50.9221 21.5936 50.9921 21.3736 51.0387C21.154 51.0854 20.9184 51.1087 20.6667 51.1087ZM20.6667 46.9431C25.4084 45.3098 29.2798 42.3177 32.2811 37.9668C35.2819 33.6156 36.7823 28.7323 36.7823 23.3168V11.1668L20.6667 5.08685L4.55109 11.1743V23.31C4.55109 28.73 6.05151 33.6156 9.05234 37.9668C12.0536 42.3177 15.9251 45.3098 20.6667 46.9431Z" fill="#2899D5"/>
</svg>
