<svg width="51" height="55" viewBox="0 0 51 55" fill="none" xmlns="http://www.w3.org/2000/svg">
<path d="M26.5535 54.1425C25.6806 54.1425 24.9216 53.8298 24.2766 53.2044C23.6316 52.579 23.3091 51.8361 23.3091 50.9756C23.3091 50.5427 23.387 50.1406 23.5429 49.7694C23.6987 49.3986 23.9274 49.0623 24.2291 48.7606L25.8541 47.2756C26.0724 47.089 26.302 46.9956 26.5429 46.9956C26.7837 46.9956 27.0206 47.089 27.2535 47.2756L28.8785 48.7606C29.1701 49.0623 29.3939 49.3984 29.5497 49.7688C29.7056 50.1392 29.7835 50.5406 29.7835 50.9731C29.7835 51.8381 29.4635 52.5825 28.8235 53.2063C28.1835 53.8304 27.4268 54.1425 26.5535 54.1425ZM16.4541 48.6413C16.0812 48.2717 15.8947 47.8581 15.8947 47.4006C15.8947 46.9431 16.0812 46.5279 16.4541 46.155L21.2041 41.405C21.5674 41.0417 21.9795 40.86 22.4404 40.86C22.9008 40.86 23.3126 41.0442 23.676 41.4125C24.0393 41.7804 24.221 42.1923 24.221 42.6481C24.221 43.1036 24.0393 43.5179 23.676 43.8913L18.8635 48.7038C18.491 49.0671 18.0872 49.2384 17.6522 49.2175C17.2168 49.1967 16.8174 49.0046 16.4541 48.6413ZM33.5154 45.5613L31.4885 43.5188C31.2601 43.2888 31.146 43.0294 31.146 42.7406C31.146 42.4515 31.2601 42.1927 31.4885 41.9644L33.5154 39.9225C33.7454 39.6942 34.0049 39.58 34.2941 39.58C34.5829 39.58 34.8414 39.6942 35.0697 39.9225L37.1122 41.9644C37.3401 42.1948 37.4541 42.4544 37.4541 42.7431C37.4541 43.0323 37.3401 43.2909 37.1122 43.5188L35.0697 45.5613C34.8397 45.7896 34.5804 45.9038 34.2916 45.9038C34.0024 45.9038 33.7437 45.7896 33.5154 45.5613ZM13.9541 43.5188L11.9122 45.5613C11.6822 45.7896 11.4226 45.9038 11.1335 45.9038C10.8447 45.9038 10.5862 45.7896 10.3579 45.5613L8.31598 43.5188C8.08764 43.2888 7.97348 43.0294 7.97348 42.7406C7.97348 42.4515 8.08764 42.1927 8.31598 41.9644L10.3579 39.9225C10.5879 39.6942 10.8474 39.58 11.1366 39.58C11.4254 39.58 11.6839 39.6942 11.9122 39.9225L13.9541 41.9644C14.1824 42.1948 14.2966 42.4544 14.2966 42.7431C14.2966 43.0323 14.1824 43.2909 13.9541 43.5188ZM13.4585 34.8394C9.76848 34.8394 6.61618 33.5309 4.0016 30.9138C1.3866 28.2963 0.0791016 25.1452 0.0791016 21.4606C0.0791016 18.119 1.26368 15.1367 3.63285 12.5138C6.00202 9.89043 8.9516 8.43877 12.4816 8.15877C13.8483 5.82543 15.6397 3.97668 17.856 2.61252C20.0722 1.24877 22.5637 0.566895 25.3304 0.566895C29.1441 0.566895 32.3497 1.7671 34.9472 4.16752C37.5443 6.56835 39.1595 9.5446 39.7929 13.0963C43.1145 13.3029 45.7441 14.4573 47.6816 16.5594C49.6191 18.6615 50.5879 21.1261 50.5879 23.9531C50.5879 26.9444 49.5329 29.5067 47.4229 31.64C45.3129 33.7729 42.7414 34.8394 39.7085 34.8394H13.4585ZM13.4585 30.5669H39.7085C41.5506 30.5669 43.1145 29.9171 44.4004 28.6175C45.6862 27.3184 46.3291 25.7661 46.3291 23.9606C46.3291 22.1136 45.6862 20.5484 44.4004 19.265C43.1145 17.9813 41.5506 17.3394 39.7085 17.3394H35.7041V15.2106C35.7041 12.3173 34.6991 9.86544 32.6891 7.85502C30.6787 5.8446 28.2268 4.83939 25.3335 4.83939C23.2618 4.83939 21.3614 5.39898 19.6322 6.51814C17.9026 7.63731 16.6329 9.14794 15.8229 11.05L15.2541 12.3394H13.3485C10.8301 12.424 8.69868 13.3463 6.9541 15.1063C5.20993 16.8663 4.33785 18.9844 4.33785 21.4606C4.33785 23.9648 5.22952 26.1086 7.01285 27.8919C8.79618 29.6752 10.9447 30.5669 13.4585 30.5669Z" fill="#2899D5"/>
</svg>
