<svg width="57" height="56" viewBox="0 0 57 56" fill="none" xmlns="http://www.w3.org/2000/svg">
<path d="M26.5374 5.41063V2.28563C26.5374 1.68438 26.7432 1.17917 27.1549 0.77C27.5661 0.360834 28.0738 0.15625 28.678 0.15625C29.2817 0.15625 29.7857 0.360834 30.1899 0.77C30.594 1.17917 30.7961 1.68438 30.7961 2.28563V5.41063C30.7961 6.01146 30.5903 6.51646 30.1786 6.92562C29.7674 7.33479 29.2597 7.53938 28.6555 7.53938C28.0517 7.53938 27.5478 7.33479 27.1436 6.92562C26.7395 6.51646 26.5374 6.01146 26.5374 5.41063ZM26.5374 53.7144V50.5894C26.5374 49.9885 26.7432 49.4835 27.1549 49.0744C27.5661 48.6652 28.0738 48.4606 28.678 48.4606C29.2817 48.4606 29.7857 48.6652 30.1899 49.0744C30.594 49.4835 30.7961 49.9885 30.7961 50.5894V53.7144C30.7961 54.3156 30.5903 54.8208 30.1786 55.23C29.7674 55.6392 29.2597 55.8438 28.6555 55.8438C28.0517 55.8438 27.5478 55.6392 27.1436 55.23C26.7395 54.8208 26.5374 54.3156 26.5374 53.7144ZM54.3811 30.1294H51.2561C50.6553 30.1294 50.1503 29.9235 49.7411 29.5119C49.332 29.1006 49.1274 28.5929 49.1274 27.9888C49.1274 27.385 49.332 26.881 49.7411 26.4769C50.1503 26.0727 50.6553 25.8706 51.2561 25.8706H54.3811C54.9824 25.8706 55.4876 26.0765 55.8967 26.4881C56.3059 26.8994 56.5105 27.4071 56.5105 28.0112C56.5105 28.615 56.3059 29.119 55.8967 29.5231C55.4876 29.9273 54.9824 30.1294 54.3811 30.1294ZM6.07737 30.1294H2.95237C2.35112 30.1294 1.84591 29.9235 1.43675 29.5119C1.02758 29.1006 0.822998 28.5929 0.822998 27.9888C0.822998 27.385 1.02758 26.881 1.43675 26.4769C1.84591 26.0727 2.35112 25.8706 2.95237 25.8706H6.07737C6.67821 25.8706 7.18321 26.0765 7.59237 26.4881C8.00154 26.8994 8.20612 27.4071 8.20612 28.0112C8.20612 28.615 8.00154 29.119 7.59237 29.5231C7.18321 29.9273 6.67821 30.1294 6.07737 30.1294ZM48.1086 11.5569L46.5936 13.0569C46.1586 13.4819 45.6563 13.684 45.0867 13.6631C44.5167 13.6423 44.0195 13.4194 43.5949 12.9944C43.1699 12.5698 42.9599 12.0621 42.9649 11.4712C42.9699 10.8808 43.1849 10.3731 43.6099 9.94812L45.0474 8.51062C45.472 8.08604 45.9817 7.87375 46.5767 7.87375C47.1717 7.87375 47.6795 8.08604 48.0999 8.51062C48.5203 8.93562 48.733 9.44333 48.738 10.0337C48.743 10.6246 48.5332 11.1323 48.1086 11.5569ZM13.7861 45.9894L12.2861 47.4894C11.8615 47.914 11.3642 48.1158 10.7942 48.095C10.2247 48.0742 9.72737 47.8515 9.30237 47.4269C8.87779 47.0019 8.663 46.4942 8.658 45.9038C8.653 45.3129 8.86779 44.8052 9.30237 44.3806L10.7399 42.9431C11.154 42.5181 11.6615 42.3056 12.2624 42.3056C12.8636 42.3056 13.3765 42.5181 13.8011 42.9431C14.2261 43.3677 14.4361 43.8754 14.4311 44.4663C14.4261 45.0567 14.2111 45.5644 13.7861 45.9894ZM45.0474 47.4269L43.5474 45.9894C43.1224 45.5544 42.9203 45.0417 42.9411 44.4512C42.962 43.8604 43.1849 43.3527 43.6099 42.9281C44.0345 42.5031 44.5422 42.2931 45.133 42.2981C45.7234 42.3031 46.2311 42.5181 46.6561 42.9431L48.0936 44.4431C48.5182 44.8677 48.7305 45.369 48.7305 45.9469C48.7305 46.5248 48.5182 47.0181 48.0936 47.4269C47.6686 47.8515 47.1609 48.0663 46.5705 48.0713C45.9797 48.0763 45.472 47.8615 45.0474 47.4269ZM10.7399 12.9944L9.23987 11.5569C8.81529 11.1323 8.61341 10.6246 8.63425 10.0337C8.65508 9.44333 8.87779 8.93562 9.30237 8.51062C9.72737 8.08604 10.2351 7.87125 10.8255 7.86625C11.4163 7.86125 11.924 8.07104 12.3486 8.49562L13.7861 10.0106C14.2111 10.4456 14.4236 10.95 14.4236 11.5238C14.4236 12.0979 14.2111 12.5931 13.7861 13.0094C13.3615 13.4344 12.8538 13.6444 12.263 13.6394C11.6726 13.6344 11.1649 13.4194 10.7399 12.9944ZM28.6555 42.0625C24.7463 42.0625 21.4272 40.6942 18.698 37.9575C15.9688 35.2213 14.6042 31.8983 14.6042 27.9888C14.6042 24.0796 15.9726 20.7604 18.7092 18.0312C21.4455 15.3021 24.7684 13.9375 28.678 13.9375C32.5872 13.9375 35.9063 15.3058 38.6355 18.0425C41.3647 20.7787 42.7292 24.1017 42.7292 28.0112C42.7292 31.9204 41.3609 35.2396 38.6242 37.9688C35.888 40.6979 32.5651 42.0625 28.6555 42.0625ZM28.6624 37.7894C31.4007 37.7894 33.7201 36.8431 35.6205 34.9506C37.5209 33.0577 38.4711 30.7423 38.4711 28.0044C38.4711 25.266 37.5224 22.9467 35.6249 21.0462C33.727 19.1458 31.409 18.1956 28.6711 18.1956C25.9328 18.1956 23.6159 19.1444 21.7205 21.0419C19.8251 22.9398 18.8774 25.2577 18.8774 27.9956C18.8774 30.734 19.8236 33.0508 21.7161 34.9463C23.609 36.8417 25.9245 37.7894 28.6624 37.7894Z" fill="#2899D5"/>
</svg>
